<svg width="32" height="32" viewBox="0 0 32 32" fill="none" xmlns="http://www.w3.org/2000/svg">
<path d="M25.6667 16.6667C25.6667 17.219 25.219 17.6667 24.6667 17.6667H18.6667C18.1144 17.6667 17.6667 18.1144 17.6667 18.6667V24.6667C17.6667 25.219 17.219 25.6667 16.6667 25.6667H16C15.4477 25.6667 15 25.219 15 24.6667V18.6667C15 18.1144 14.5523 17.6667 14 17.6667H8C7.44772 17.6667 7 17.219 7 16.6667V16C7 15.4477 7.44772 15 8 15H14C14.5523 15 15 14.5523 15 14V8C15 7.44772 15.4477 7 16 7H16.6667C17.219 7 17.6667 7.44772 17.6667 8V14C17.6667 14.5523 18.1144 15 18.6667 15H24.6667C25.219 15 25.6667 15.4477 25.6667 16V16.6667Z" fill="#555555"/>
</svg>
